# xmcd
#
# Track frame offsets: 
#        150
#        11965
#        25837
#        36865
#        48455
#        59067
#        70225
#        79397
#        89512
#        106370
#
# Disc length: 1692 seconds
#
# Revision: 1
# Processed by: cddbd v1.5.2PL0 Copyright (c) Steve Scherf et al.
# Submitted via: ExactAudioCopy v0.99pb5
#
DISCID=8c069a0a
DTITLE=Courreges - Sweet Courreges
DYEAR=1900
DGENRE=Blues
TTITLE0=Sweets for my Sweet-The Drifters with Ben E.King
TTITLE1=Sweet little sixteen-Chuck Berry
TTITLE2=Sweet nothin's-Brenda Lee
TTITLE3=Ain't she Sweet-Gene Vincent
TTITLE4=Sweet little rock'n'roller-Chuck Berry
TTITLE5=Sweet soul music-Sam and Dave
TTITLE6=Sweet Sweet lovin'-The Platters
TTITLE7=Sweetie Pie-Eddie Cochran
TTITLE8=Sweeter than Candy-Carl Perkins
TTITLE9=Sweet lorraine-Nat Cole King
EXTD=offert par Courrèges parfums Paris
EXTT0=
EXTT1=
EXTT2=
EXTT3=
EXTT4=
EXTT5=
EXTT6=
EXTT7=
EXTT8=
EXTT9=
PLAYORDER=
